<svg width="155" height="77" viewBox="0 0 155 77" fill="none" xmlns="http://www.w3.org/2000/svg">
<path d="M11.8878 15.5685V8.86458H31.3353V15.5685H29.4064L28.1099 11.2995H24.1887V28.5335L27.0979 29.2292V31H16.1251V29.2292L19.0343 28.5335V11.2995H15.0816L13.7851 15.5685H11.8878ZM32.7692 31V29.324L35.457 28.6916V18.0666H32.7692V16.3906L37.8287 15.189H40.3268V17.0863C41.9079 15.5052 43.7842 14.7147 45.9555 14.7147C46.082 15.1152 46.1453 15.5579 46.1453 16.0428C46.1453 17.0125 46.0399 17.919 45.8291 18.7623L41.8447 18.0982C41.3387 18.3301 40.8328 18.6674 40.3268 19.1101V28.6916L43.6471 29.324V31H32.7692ZM47.5302 27.0789C47.5302 25.2448 48.2786 23.8534 49.7754 22.9048C51.2932 21.935 53.7387 21.4501 57.1117 21.4501V20.5015C57.1117 19.869 57.1012 19.4158 57.0801 19.1417C57.0801 18.8466 57.0379 18.4988 56.9536 18.0982C56.8693 17.6977 56.7428 17.4131 56.5741 17.2444C56.4266 17.0758 56.1947 16.9282 55.8784 16.8017C55.5622 16.6541 55.1722 16.5804 54.7084 16.5804L50.6924 20.0588C49.2589 19.2366 48.5421 17.9612 48.5421 16.2325L49.4908 15.8214C49.8913 15.6528 50.6713 15.4314 51.8308 15.1574C52.9903 14.8622 54.1181 14.7147 55.2144 14.7147C59.7469 14.7147 62.0131 16.5277 62.0131 20.1536V28.6283H64.4796V29.9881C64.3742 30.0935 64.2267 30.2305 64.0369 30.3992C63.8472 30.5678 63.4361 30.7892 62.8037 31.0632C62.1712 31.3373 61.5177 31.4743 60.8431 31.4743C59.2409 31.4743 58.0498 30.9368 57.2698 29.8616C55.8574 30.9368 54.3184 31.4743 52.653 31.4743C51.1984 31.4743 49.9757 31.1054 48.9848 30.3676C48.0151 29.6297 47.5302 28.5335 47.5302 27.0789ZM52.6214 26.7943C52.6214 27.4056 52.8216 27.8905 53.2222 28.2489C53.6438 28.6073 54.1498 28.7865 54.74 28.7865C55.6887 28.7865 56.4793 28.4386 57.1117 27.7429V23.4107C55.9311 23.4107 54.8876 23.7269 53.9811 24.3594C53.0746 24.9707 52.6214 25.7824 52.6214 26.7943ZM64.0263 16.865V15.189H73.7026V16.865L71.5523 17.3709L74.7462 24.9286L77.8767 17.4025L75.7897 16.865V15.189H82.6517V16.865L79.9954 17.5606L74.3667 31.2214H72.1532L66.3031 17.529L64.0263 16.865ZM83.1705 22.9048C83.1705 20.4172 83.8662 18.4355 85.2575 16.9598C86.67 15.463 88.5778 14.7147 90.9811 14.7147C93.4265 14.7147 95.2712 15.5474 96.515 17.2128C97.7798 18.8782 98.4123 20.9337 98.4123 23.3791H88.0403C88.1878 24.9391 88.7465 26.2883 89.7162 27.4267C90.686 28.544 91.9298 29.1027 93.4476 29.1027C94.586 29.1027 95.8087 28.8602 97.1158 28.3754L97.7798 30.1778C95.8193 31.0422 93.9009 31.4743 92.0246 31.4743C89.3051 31.4743 87.1443 30.6838 85.5421 29.1027C83.961 27.5005 83.1705 25.4345 83.1705 22.9048ZM88.0403 21.4185L93.3844 21.0707C93.3844 20.5647 93.3528 20.1009 93.2895 19.6793C93.2263 19.2366 93.0471 18.7096 92.7519 18.0982C92.2249 17.2128 91.603 16.7701 90.8862 16.7701C90.043 16.7701 89.3473 17.2023 88.7992 18.0666C88.483 18.5936 88.2722 19.1734 88.1667 19.8058C88.0613 20.4382 88.0192 20.9758 88.0403 21.4185ZM99.7696 31V29.324L102.457 28.6916V8.57998H99.7696V6.90402L104.829 5.70238H107.327V28.6916L110.015 29.324V31H99.7696Z" fill="#2F2F2F"/>
<g clip-path="url(#clip0_24_77)">
<path d="M34.0664 38.3129C40.8518 45.7499 70.3733 53.1527 90.23 52.688C111.693 52.2231 123.447 48.9711 146.329 37.0128C146.263 38.3221 146.061 39.3876 146.094 40.3595C146.07 41.4684 146.06 42.6408 146.366 43.7096C146.432 44.0268 147.293 44.5077 147.801 44.5109C148.309 44.5141 149.041 43.9696 149.14 43.6322C149.992 40.4056 150.68 37.199 151.436 33.9189C151.638 32.8534 150.985 32.1521 149.517 32.0055C143.946 31.6424 138.362 31.2159 132.722 30.9264C131.446 30.8866 130.014 31.321 128.365 31.5218C130.25 34.0899 133.153 33.4113 135.442 33.8484C137.827 34.339 140.31 34.4922 143.355 34.9024C137.248 39.289 130.782 42.3531 123.732 44.6423C97.9284 53.1175 72.2935 51.8129 47.0538 43.0434C43.769 41.8816 40.679 40.436 37.4634 39.2008C36.4905 38.9939 35.6 38.7769 34.0664 38.3129Z" fill="#DF6951"/>
</g>
<defs>
<clipPath id="clip0_24_77">
<rect width="116.361" height="21.9387" fill="white" transform="matrix(0.992676 -0.120803 -0.203205 -0.979136 38.5244 59.7939)"/>
</clipPath>
</defs>
</svg>
