<svg width="26" height="25" viewBox="0 0 26 25" fill="none" xmlns="http://www.w3.org/2000/svg">
<g clip-path="url(#clip0_0_126)">
<path d="M25.0096 25.001V25H25.0158V15.8312C25.0158 11.3458 24.0496 7.89062 18.8026 7.89062C16.2801 7.89062 14.5874 9.27396 13.8964 10.5854H13.8234V8.30937H8.84839V25H14.0287V16.7354C14.0287 14.5594 14.4415 12.4552 17.138 12.4552C19.7948 12.4552 19.8345 14.9385 19.8345 16.875V25.001H25.0096Z" fill="#DF6951"/>
<path d="M0.41272 8.31055H5.59931V25.0012H0.41272V8.31055Z" fill="#DF6951"/>
<path d="M3.00397 0C1.34564 0 0 1.34479 0 3.00208C0 4.65938 1.34564 6.03229 3.00397 6.03229C4.6623 6.03229 6.00794 4.65938 6.00794 3.00208C6.0069 1.34479 4.66126 0 3.00397 0V0Z" fill="#DF6951"/>
</g>
<defs>
<clipPath id="clip0_0_126">
<rect width="25.0157" height="25" fill="white"/>
</clipPath>
</defs>
</svg>
