<svg width="26" height="25" viewBox="0 0 26 25" fill="none" xmlns="http://www.w3.org/2000/svg">
<g clip-path="url(#clip0_0_130)">
<path d="M22.496 7.40938C23.5133 6.6875 24.3691 5.78646 25.0664 4.74896V4.74792C24.1356 5.15521 23.1454 5.42604 22.1114 5.55729C23.1746 4.92292 23.9865 3.92604 24.368 2.725C23.3768 3.31562 22.2823 3.73229 21.116 3.96563C20.1748 2.96354 18.8333 2.34375 17.3699 2.34375C14.5306 2.34375 12.2448 4.64688 12.2448 7.46979C12.2448 7.87604 12.2792 8.26667 12.3636 8.63854C8.10051 8.43021 4.32731 6.38854 1.79238 3.27708C1.35043 4.04479 1.08985 4.92292 1.08985 5.86771C1.08985 7.64271 2.00397 9.21563 3.36837 10.1271C2.54389 10.1115 1.73609 9.87188 1.05129 9.49583V9.55208C1.05129 12.0427 2.82845 14.1115 5.16012 14.5885C4.74215 14.7031 4.2877 14.7573 3.81553 14.7573C3.48719 14.7573 3.15574 14.7385 2.84512 14.6698C3.50908 16.699 5.39569 18.1917 7.63668 18.2406C5.89183 19.6042 3.67585 20.426 1.27747 20.426C0.857416 20.426 0.454038 20.4073 0.0506592 20.3563C2.32292 21.8198 5.0142 22.6563 7.9181 22.6563C16.9686 22.6563 22.8671 15.1104 22.496 7.40938Z" fill="#DF6951"/>
</g>
<defs>
<clipPath id="clip0_0_130">
<rect width="25.0157" height="25" fill="white" transform="translate(0.0506592)"/>
</clipPath>
</defs>
</svg>
