<svg width="26" height="25" viewBox="0 0 26 25" fill="none" xmlns="http://www.w3.org/2000/svg">
<g clip-path="url(#clip0_0_132)">
<path d="M10.6214 17.623C10.6881 17.5667 10.7558 17.5084 10.8184 17.4469C7.33597 20.8615 1.6574 19.2678 0.326357 14.4522V14.4449C-1.45914 7.89278 6.06955 2.9157 10.8163 7.49903C10.9153 7.60424 17.4725 14.5928 17.0556 14.148H17.0744C18.0531 15.1563 19.4686 15.0459 20.3108 14.1647C21.2166 13.2188 21.2489 11.6751 20.3598 10.7136C18.9558 9.09799 16.1988 10.3053 16.4625 12.7001L14.8845 11.0938L13.0541 9.34486C13.4315 8.59591 13.9266 7.9407 14.5468 7.37403C14.48 7.43132 14.4123 7.4907 14.3498 7.55007C17.8457 4.12299 23.5201 5.75424 24.8418 10.549V10.5553C26.6314 17.1063 19.0944 22.0834 14.3518 17.5001C14.2549 17.3959 7.70183 10.3636 8.11667 10.8094L8.1125 10.7938C8.09582 10.7938 8.09582 10.7782 8.09582 10.7782C7.06809 9.71882 5.67451 9.8782 4.85941 10.7459C3.95259 11.6917 3.92133 13.2355 4.81251 14.1824C6.15502 15.7605 8.97137 14.5907 8.70662 12.148C8.80877 12.2532 12.3433 15.8792 12.1181 15.649C11.5459 16.7897 10.9059 17.3136 10.6214 17.623Z" fill="#DF6951"/>
</g>
<defs>
<clipPath id="clip0_0_132">
<rect width="25.0157" height="25" fill="white" transform="translate(0.0751953)"/>
</clipPath>
</defs>
</svg>
