<svg width="23" height="20" viewBox="0 0 23 20" fill="none" xmlns="http://www.w3.org/2000/svg">
<path d="M11.7149 8C13.5381 8 14.9967 6.65 14.9967 5C14.9967 3.35 13.5381 2 11.7149 2C9.89163 2 8.43303 3.35 8.43303 5C8.43303 6.65 9.89163 8 11.7149 8ZM11.7149 10C8.71188 10 6.28803 7.76 6.28803 5C6.28803 2.24 8.71188 0 11.7149 0C14.7179 0 17.1417 2.24 17.1417 5C17.1417 7.76 14.7179 10 11.7149 10ZM4.20738 18H19.2224V16.67C19.2224 14.92 16.7449 13.11 11.7149 13.11C6.68485 13.11 4.20738 14.92 4.20738 16.67V18ZM11.7149 11.11C18.8577 11.11 21.3674 14.44 21.3674 16.67V20H2.06238V16.67C2.06238 14.44 4.57203 11.11 11.7149 11.11Z" fill="#7D7D7D"/>
</svg>
